<?xml version="1.0" encoding="UTF-8" standalone="no"?>
<!-- Created with Inkscape (http://www.inkscape.org/) -->

<svg
   xmlns="http://www.w3.org/2000/svg"
   version="1.1"
   width="16.764133"
   height="19.99999"
   viewBox="0 0 360.42887 512.99976"
   id="Capa_1"
   xml:space="preserve">
<path style="fill:#222;"
   d="m 377.21442,78 c -3.333,-14 -9,-24.667 -17,-32 -8,-7.333 -19.667,-14 -35,-20 -15.333,-6.667 -37.333,-12.667 -66,-18 -28.667,-5.333 -54.834,-8 -78.5,-8 -23.667,0 -49.833,2.667 -78.5,8 -28.666998,5.333 -50.666998,11.333 -65.999998,18 -15.333,6 -27.0000005,12.667 -35.0000005,20 -8,7.333 -13.3329995,18 -15.9999995,32 l -20,160 v 223 h 30.9999995 v 20 c 0,13.333 4.16700003,22.667 12.5,28 8.3330005,5.333 16.8330005,5.333 25.5000005,0 8.667,-5.333 13,-14.667 13,-28 V 461 H 303.21442 v 20 c 0,13.333 5.167,22.667 15.5,28 10.333,5.333 20.5,5.333 30.5,0 10,-5.333 15,-14.667 15,-28 v -20 h 31 V 238 l -18,-160 z M 74.214422,38.5 c 2.667,-5 7.334,-7.5 14,-7.5 H 293.21442 V 61 H 88.214422 c -6.667,0 -11.333,-2.5 -14,-7.5 -2.667,-5 -2.667,-10 0,-15 z M 1.2144215,234 18.214422,112 c 1.333,-6.667 7,-10 17,-10 H 328.21442 c 10,0 15.667,3.333 17,10 l 17,124 c 0.667,2 1,3.333 1,4 0,4.667 -1.667,8.5 -5,11.5 -3.333,3 -7.667,4.5 -13,4.5 H 18.214422 c -5.333,0 -9.6670005,-1.667 -13.0000005,-5 -3.333,-3.333 -4.99999997,-7.667 -4.99999997,-13 0,-1.333 0.333,-2.667 0.99999997,-4 z M 54.214422,383.5 c -6.667,6.333 -14.5,9.5 -23.5,9.5 -9,0 -16.833,-3.167 -23.5000005,-9.5 -6.66699997,-6.333 -10,-14 -10,-23 0,-9 3.33300003,-16.667 10,-23 6.6670005,-6.333 14.5000005,-9.5 23.5000005,-9.5 9,0 16.833,3.167 23.5,9.5 6.667,6.333 10,14 10,23 0,9 -3.333,16.667 -10,23 z m 301.999998,0 c -6.667,6.333 -14.5,9.5 -23.5,9.5 -9,0 -16.833,-3.167 -23.5,-9.5 -6.667,-6.333 -10,-14 -10,-23 0,-9 3.333,-16.667 10,-23 6.667,-6.333 14.5,-9.5 23.5,-9.5 9,0 16.833,3.167 23.5,9.5 6.667,6.333 10,14 10,23 0,9 -3.333,16.667 -10,23 z"
   id="path3" />
<path
   d="M 1.9056281,9.9557058 C 1.730323,9.9212778 1.5301057,9.7752306 1.4539272,9.6262155 1.3848017,9.4909968 1.3573978,9.2762287 1.3953706,9.1672996 1.4040073,9.1425244 1.5615102,8.0431194 1.745377,6.7241777 2.1061034,4.1365593 2.0844426,4.2614 2.1922429,4.1486859 c 0.058068,-0.060715 0.1746703,-0.1162614 0.297746,-0.141838 0.078535,-0.016321 1.1467097,-0.019878 5.968237,-0.019878 5.5675751,0 5.8775571,0.00137 5.9683831,0.026463 0.185517,0.051244 0.298038,0.1377946 0.354347,0.2725608 0.01297,0.031044 0.167042,1.1061988 0.35817,2.4994157 0.184475,1.3447156 0.342673,2.4639152 0.351552,2.4871106 0.03602,0.094099 0.0056,0.2679506 -0.06929,0.3959815 -0.0457,0.078123 -0.153,0.1746225 -0.247612,0.2226798 -0.169367,0.086028 0.310062,0.080411 -6.7305352,0.078866 C 4.8837412,9.969266 1.9418136,9.9628123 1.9056281,9.9557058 l 0,0 z"
   transform="matrix(25.65,0,0,25.65,-34.785578,0)"
   id="path3770"
   style="fill:#ffffff;fill-opacity:1;stroke:none" /><path
   d="M 2.4061304,15.30358 C 2.1651834,15.278218 1.9362715,15.182093 1.7368475,15.022534 1.5750665,14.893093 1.4670923,14.759027 1.3793036,14.57859 1.2929903,14.401186 1.2598189,14.255619 1.2598189,14.054253 c 0,-0.201367 0.033171,-0.346934 0.1194847,-0.524338 0.1968083,-0.404511 0.5994262,-0.684447 1.0415487,-0.724177 0.4183964,-0.0376 0.7778459,0.09364 1.0679503,0.389931 0.1685693,0.172162 0.2691256,0.341724 0.3270424,0.551472 0.037595,0.13615 0.037693,0.477811 1.768e-4,0.613357 -0.1144878,0.413637 -0.4627888,0.76813 -0.8817378,0.897412 -0.077648,0.02396 -0.3947886,0.07098 -0.4064055,0.06025 -0.00119,-0.0011 -0.055973,-0.0077 -0.1217473,-0.01458 l -8e-7,0 z"
   transform="matrix(25.65,0,0,25.65,-34.785578,0)"
   id="path3772"
   style="fill:#ffffff;fill-opacity:1;stroke:none" /><path
   d="m 14.186261,15.305003 c -0.373538,-0.03576 -0.734415,-0.257201 -0.959836,-0.588962 -0.127986,-0.188362 -0.191207,-0.40348 -0.191375,-0.651184 -2.44e-4,-0.358082 0.112279,-0.628772 0.365688,-0.879717 0.264748,-0.262173 0.563605,-0.384465 0.93756,-0.383649 0.371762,8.11e-4 0.671295,0.131764 0.938851,0.410457 0.06611,0.06886 0.148113,0.172187 0.182228,0.229612 0.230917,0.38869 0.219425,0.899861 -0.02857,1.270638 -0.143285,0.214229 -0.4154,0.434153 -0.642572,0.51933 -0.169567,0.06358 -0.405099,0.09233 -0.601978,0.07347 l 0,0 z"
   transform="matrix(25.65,0,0,25.65,-34.785578,0)"
   id="path3774"
   style="fill:#ffffff;fill-opacity:1;stroke:none" /><path
   d="M 4.5995853,2.3480008 C 4.3981897,2.2952409 4.2639905,2.1583711 4.1993816,1.9398333 4.1277278,1.6974657 4.2600348,1.3902669 4.4828674,1.2816179 4.6309993,1.2093917 4.2862702,1.2147909 8.749662,1.2147909 l 4.036464,0 0,0.5773305 0,0.5773305 -4.0545555,-5.837e-4 C 4.772128,2.3682983 4.675199,2.3678089 4.5995853,2.3480004 l 0,4e-7 z"
   transform="matrix(25.65,0,0,25.65,-34.785578,0)"
   id="path3782"
   style="fill:#ffffff;fill-opacity:1;stroke:none" /></svg>
