<?xml version="1.0" encoding="UTF-8" standalone="no"?>
<!-- Created with Inkscape (http://www.inkscape.org/) -->

<svg
   xmlns="http://www.w3.org/2000/svg"
   version="1.1"
   width="20"
   height="30"
   viewBox="0 0 24.372915 61.375002"
   id="Capa_1">
  <path
     d="M 24.990957,14.951 H -0.85404256 v 7.601 H 1.1039572 l -0.006,-0.167 c 0,-1.296 1.051,-2.351 2.359,-2.351 1.293,0 2.345,1.055 2.345,2.351 l -0.007,0.167 H 16.730956 l -0.007,-0.167 c 0,-1.296 1.057,-2.351 2.359,-2.351 1.295,0 2.350001,1.055 2.350001,2.351 l -0.01,0.167 h 4.513 v -3.416 l -0.945,-4.185 z m -22.9549998,3.69 h -2.17199976 l 0.006,-3.055 2.16599976,0.004 v 3.051 z m 4.443,0 h -3.928 v -3.05 l 3.928,0.005 v 3.045 z m 4.4499998,0 H 6.9969572 v -3.045 l 3.9319998,0.007 v 3.038 z m 4.445,3.289 h -3.93 v -6.328 l 3.93,0.018 v 6.31 z m 4.445999,-3.289 h -3.93 V 15.61 l 3.93,0.009 v 3.022 z m 0.517,0 v -3.022 l 4.284001,0.009 0.654,3.014 c 0,-0.001 -4.938001,-0.001 -4.938001,-0.001 z m -7.118999,2.78 h -1.241 v -5.468 h 1.241 v 5.468 z M 12.186957,0 C 1.5099572,0 -7.1470426,8.656 -7.1470426,19.335 c 0,10.676 19.3339996,42.04 19.3339996,42.04 0,0 19.333,-31.364 19.333,-42.04 0,-10.678 -8.657,-19.335 -19.333,-19.335 z m 0,34.294 c -8.2499998,0 -14.9619996,-6.71 -14.9619996,-14.959 0,-8.249 6.7119998,-14.96 14.9619996,-14.96 8.249999,0 14.959,6.711 14.959,14.96 0,8.248 -6.709001,14.959 -14.959,14.959 z M 3.4579572,20.527 c -1.037,0 -1.867,0.834 -1.867,1.855 0,1.034 0.831,1.866 1.867,1.866 1.02,0 1.85,-0.832 1.85,-1.866 0,-1.021 -0.83,-1.855 -1.85,-1.855 z m -0.004,2.684 c -0.46,0 -0.828,-0.367 -0.828,-0.826 0,-0.454 0.368,-0.822 0.828,-0.822 0.452,0 0.819,0.368 0.819,0.822 0,0.459 -0.367,0.826 -0.819,0.826 z M 19.083956,20.527 c -1.032,0 -1.861,0.834 -1.861,1.855 0,1.034 0.829,1.866 1.861,1.866 1.022,0 1.856001,-0.832 1.856001,-1.866 0,-1.021 -0.834001,-1.855 -1.856001,-1.855 z m -0.006,2.684 c -0.457,0 -0.825,-0.367 -0.825,-0.826 0,-0.454 0.369,-0.822 0.825,-0.822 0.456,0 0.822,0.368 0.822,0.822 0,0.459 -0.366,0.826 -0.822,0.826 z m -4.159999,-1.79 h -1.295 v -5.468 h 1.295 v 5.468 z"
     id="path3"
     style="fill:#AAA" />
  <path
     d="M 13.466932,24.472475 C 10.074316,24.341434 7.0240427,22.685108 5.0705013,19.913138 4.1150861,18.557456 3.448655,16.865267 3.2405502,15.266564 3.1476668,14.553015 3.1245275,13.450728 3.1888499,12.803715 3.6392631,8.2730456 6.8640078,4.5468487 11.283206,3.4506755 c 0.908979,-0.2254704 1.433281,-0.2844531 2.528525,-0.2844531 0.956064,0 1.189381,0.019566 1.971678,0.16535 1.560477,0.2908 3.119248,0.9769668 4.400816,1.9372279 2.205462,1.6525212 3.695723,4.0948322 4.147952,6.7978577 0.213956,1.278842 0.172222,2.800288 -0.111405,4.061412 -0.842394,3.745631 -3.656282,6.77974 -7.314498,7.886945 -1.086854,0.328949 -2.365024,0.498956 -3.439342,0.45746 z M 7.8949961,17.286256 c 0.4094026,-0.106636 0.7064593,-0.351709 0.8861812,-0.731105 0.097204,-0.2052 0.104856,-0.246514 0.104856,-0.566152 0,-0.317714 -0.00802,-0.361725 -0.1021055,-0.560273 -0.2577325,-0.543897 -0.8288517,-0.848224 -1.4193164,-0.756297 -0.5018731,0.07814 -0.9059087,0.420075 -1.0678509,0.903736 -0.07066,0.211034 -0.070547,0.615179 2.299e-4,0.825669 0.2280253,0.67814 0.9198819,1.061051 1.598005,0.884422 l 7e-7,0 z m 11.1649149,0 c 0.10368,-0.02701 0.245746,-0.0783 0.315702,-0.11399 0.209056,-0.106652 0.454176,-0.37157 0.569949,-0.615982 0.09781,-0.206482 0.105386,-0.247288 0.105386,-0.567285 0,-0.317714 -0.008,-0.361725 -0.102106,-0.560273 -0.51858,-1.09437 -2.102822,-1.000456 -2.487167,0.147439 -0.07066,0.211034 -0.07055,0.615179 2.3e-4,0.825669 0.228025,0.67814 0.919882,1.061051 1.598005,0.884422 l 1e-6,0 z M 5.9141957,15.946641 c 0,-0.951348 0.9457241,-1.747523 1.8988761,-1.598602 0.7813667,0.122081 1.4177603,0.852018 1.4177603,1.626157 l 0,0.146155 3.9241389,0 3.924139,0 3.91e-4,-0.188818 c 0.0019,-0.935377 0.928338,-1.717119 1.877102,-1.583981 0.791131,0.111018 1.439144,0.843458 1.439144,1.626644 l 0,0.146155 1.62548,0 1.62548,0 0.002,-1.206796 0.002,-1.206796 -0.338604,-1.518564 -0.338604,-1.518563 -9.252102,-1.93e-4 -9.2521016,-1.93e-4 0,2.725552 0,2.725553 0.7224357,0 0.7224356,0 0,-0.17371 z"
     transform="matrix(1.4,0,0,1.4,-7.1470426,0)"
     id="path3775"
     style="fill:#ffffff;stroke:#ffffff;stroke-width:0.03283798;stroke-opacity:1" />
  <path
     d="m 19.635202,12.235641 0,-1.067234 1.526966,0 c 0.839832,0 1.526966,0.0054 1.526966,0.01204 0,0.01496 0.441559,2.054091 0.453374,2.093697 0.0081,0.02724 -0.08282,0.02873 -1.749367,0.02873 l -1.757939,0 0,-1.067235 z"
     transform="matrix(1.4,0,0,1.4,-7.1470426,0)"
     id="path3777"
     style="fill:#ffffff;stroke:#ffffff;stroke-width:0.01641899;stroke-opacity:1" />
  <path
     d="m 16.466336,12.224755 0,-1.078121 0.741551,0.01089 c 0.407852,0.006 1.035879,0.01089 1.395614,0.01089 l 0.654064,0 0,1.067234 0,1.067235 -1.395614,0 -1.395615,0 0,-1.078121 z"
     transform="matrix(1.4,0,0,1.4,-7.1470426,0)"
     id="path3779"
     style="fill:#ffffff;stroke:#ffffff;stroke-width:0.01641899;stroke-opacity:1" />
  <path
     d="m 18.572664,16.547419 c -0.164298,-0.05368 -0.285813,-0.158693 -0.366576,-0.31679 -0.03452,-0.06758 -0.04039,-0.101714 -0.04039,-0.235038 0,-0.13374 0.0061,-0.168857 0.0426,-0.246285 0.109579,-0.232308 0.373096,-0.371554 0.617608,-0.326354 0.189207,0.03498 0.35034,0.157239 0.43011,0.326354 0.03603,0.07638 0.0426,0.113145 0.0426,0.23842 0,0.134313 -0.005,0.158349 -0.05405,0.25791 -0.09455,0.192062 -0.272976,0.308953 -0.486877,0.318966 -0.06881,0.0032 -0.143921,-0.0038 -0.18502,-0.01718 l 0,0 z"
     transform="matrix(1.4,0,0,1.4,-7.1470426,0)"
     id="path3781"
     style="fill:#ffffff;stroke:#ffffff;stroke-width:0.01641899;stroke-opacity:1" />
  <path
     d="m 13.281052,13.40139 0,-2.249402 0.619817,1.9e-5 c 0.340899,1e-5 0.968926,0.0049 1.395614,0.01089 l 0.775798,0.01087 0,2.238513 0,2.238513 -1.395615,0 -1.395614,0 0,-2.249402 z m 1.276643,-0.05336 -0.0042,-1.957965 -0.447418,-0.0044 -0.447417,-0.0044 0,1.962333 0,1.962334 0.451589,0 0.451589,0 -0.0042,-1.957965 z m 1.215006,0 -0.0042,-1.957965 -0.472046,-0.0044 -0.472046,-0.0044 0,1.962321 0,1.962322 0.476218,0 0.476217,0 -0.0042,-1.957965 z"
     transform="matrix(1.4,0,0,1.4,-7.1470426,0)"
     id="path3783"
     style="fill:#ffffff;stroke:#ffffff;stroke-width:0.01641899;stroke-opacity:1" />
  <path
     d="m 10.110283,12.227432 0,-1.075444 1.395614,0 1.395614,0 0,1.075444 0,1.075444 -1.395614,0 -1.395614,0 0,-1.075444 z"
     transform="matrix(1.4,0,0,1.4,-7.1470426,0)"
     id="path3785"
     style="fill:#ffffff;stroke:#ffffff;stroke-width:0.01641899;stroke-opacity:1" />
  <path
     d="m 6.9414171,12.227432 0,-1.075444 1.3956143,0 1.3956143,0 0,1.075444 0,1.075444 -1.3956143,0 -1.3956143,0 0,-1.075444 z"
     transform="matrix(1.4,0,0,1.4,-7.1470426,0)"
     id="path3787"
     style="fill:#ffffff;stroke:#ffffff;stroke-width:0.01641899;stroke-opacity:1" />
  <path
     d="m 5.020395,12.219222 0,-1.083653 0.7634831,0 0.7634832,0 0,1.083653 0,1.083654 -0.7634832,0 -0.7634831,0 0,-1.083654 z"
     transform="matrix(1.4,0,0,1.4,-7.1470426,0)"
     id="path3789"
     style="fill:#ffffff;stroke:#ffffff;stroke-width:0.01641899;stroke-opacity:1" />
  <path
     d="m 7.4130066,16.535087 c -0.2548833,-0.06765 -0.4551495,-0.375602 -0.4079334,-0.627285 0.082877,-0.441771 0.5986603,-0.631929 0.9285064,-0.34232 0.2135848,0.18753 0.2610421,0.418321 0.1381991,0.67208 -0.1180195,0.243796 -0.3931086,0.368036 -0.6587721,0.297525 z"
     transform="matrix(1.4,0,0,1.4,-7.1470426,0)"
     id="path3801"
     style="fill:#ffffff;stroke:#ffffff;stroke-width:0.03283798;stroke-opacity:1" />
</svg>
